<?xml version="1.0" standalone="no"?>
<!DOCTYPE svg PUBLIC "-//W3C//DTD SVG 20010904//EN"
 "http://www.w3.org/TR/2001/REC-SVG-20010904/DTD/svg10.dtd">
<svg version="1.0" xmlns="http://www.w3.org/2000/svg"
 width="73.000000pt" height="74.000000pt" viewBox="0 0 73.000000 74.000000"
 preserveAspectRatio="xMidYMid meet">

<g transform="translate(0.000000,74.000000) scale(0.100000,-0.100000)"
fill="#000000" stroke="none">
<path d="M131 686 c-31 -32 -32 -35 -18 -62 24 -49 28 -96 16 -184 -7 -47 -9
-99 -5 -115 9 -37 76 -101 113 -109 16 -4 49 -20 73 -36 24 -16 46 -28 48 -25
7 6 -34 90 -52 104 -16 13 -17 12 -11 -12 9 -33 -9 -36 -28 -5 -8 13 -26 102
-41 198 -28 191 -31 220 -17 220 26 0 305 -105 324 -122 l22 -19 -22 6 c-31 9
-29 -8 5 -46 l28 -31 0 70 c1 39 7 85 14 102 12 29 11 33 -21 66 l-33 34 -181
0 -181 0 -33 -34z m309 -30 c0 -15 -24 -28 -34 -19 -13 14 -5 33 14 33 11 0
20 -6 20 -14z m-248 -81 c0 -5 -5 -11 -11 -13 -6 -2 -11 4 -11 13 0 9 5 15 11
13 6 -2 11 -8 11 -13z m0 -50 c0 -5 -5 -11 -11 -13 -6 -2 -11 4 -11 13 0 9 5
15 11 13 6 -2 11 -8 11 -13z m-3 -51 c-10 -12 -14 -12 -20 -2 -4 7 -3 16 4 20
18 11 29 -2 16 -18z m3 -46 c-6 -6 -16 -7 -22 -3 -9 6 -9 9 1 16 17 10 34 0
21 -13z m-1 -43 c1 -17 -18 -17 -25 0 -4 11 -1 15 10 13 8 -2 15 -7 15 -13z"/>
<path d="M386 398 c-3 -13 -7 -43 -10 -68 l-6 -45 21 38 c11 22 18 45 15 52
-3 8 0 12 8 9 12 -5 86 22 86 31 0 3 -25 5 -55 5 -49 0 -55 -2 -59 -22z"/>
</g>
</svg>
